# xmcd
#
# Track frame offsets:
# 150
# 11842
# 23215
# 34317
# 45710
# 55872
# 68210
# 81180
# 94140
# 108687
# 120937
# 134512
# 146520
# 157595
# 173077
# 182187
# 191585
# 202285
# 221697
# 235860
# 245475
# 253720
# 265792
# 279947
# 292825
# 307055
# 319870
# 334325
#
# Disc length: 4691 seconds
#
#
# Revision: 0
# Processed by: cddbd v1.4PL0 Copyright (c) Steve Scherf et al.
# Submitted via: FreeRIP 2.00 
#
DISCID=a212511c
DTITLE=Vernon Oxford - Keeper Of The Flame - Disc 3
DYEAR=1900
DGENRE=Country
TTITLE0=Leave Me Alone With The Blues
TTITLE1=One More Night To Spare
TTITLE2=Only The Shadows Know
TTITLE3=Redneck [The Redneck National Anthem]
TTITLE4=Good Old Fashioned Saturday Night Honky Tonk Barroom Brawl
TTITLE5=Midnight Memories
TTITLE6=Red Hot Women (Ice Cold Beer)
TTITLE7=Backslider's Wine
TTITLE8=Redneck Roots
TTITLE9=Songs That Losers Choose
TTITLE10=Images
TTITLE11=Brother Jukebox
TTITLE12=Kaw Liga
TTITLE13=You're Cheatin' Heart
TTITLE14=Hey Good Lookin'
TTITLE15=When God Comes And Gathers His Jewels
TTITLE16=Baby We're Really In Love
TTITLE17=Wedding Bells
TTITLE18=Cold Cold Heart
TTITLE19=I Saw The Light
TTITLE20=Setting The Woods On Fire
TTITLE21=I Can't Help It
TTITLE22=You Win Again
TTITLE23=Jambalaya
TTITLE24=I'm So Lonesome I Could Cry
TTITLE25=Mansion On The Hill
TTITLE26=The Funeral
TTITLE27=Nobody's Child
EXTD=
EXTT0=
EXTT1=
EXTT2=
EXTT3=
EXTT4=
EXTT5=
EXTT6=
EXTT7=
EXTT8=
EXTT9=
EXTT10=
EXTT11=
EXTT12=
EXTT13=
EXTT14=
EXTT15=
EXTT16=
EXTT17=
EXTT18=
EXTT19=
EXTT20=
EXTT21=
EXTT22=
EXTT23=
EXTT24=
EXTT25=
EXTT26=
EXTT27=
PLAYORDER=
